<svg id="visual" viewBox="0 0 900 900" width="900" height="900" xmlns="http://www.w3.org/2000/svg" xmlns:xlink="http://www.w3.org/1999/xlink" version="1.1"><g transform="translate(415.12051870285467 417.30351576574895)"><path d="M177.4 -247.6C245.7 -232.2 327.5 -209.6 362.4 -158.2C397.3 -106.7 385.2 -26.5 354.2 36.8C323.1 100.2 273 146.7 221.4 173.7C169.8 200.8 116.6 208.3 60.9 239.1C5.3 269.9 -52.9 324 -115.8 333.4C-178.8 342.8 -246.6 307.6 -281.2 252.3C-315.8 196.9 -317.3 121.4 -310.8 55C-304.4 -11.4 -290 -68.6 -263.1 -117.1C-236.2 -165.5 -196.8 -205.2 -150.8 -230.7C-104.9 -256.2 -52.4 -267.6 1.1 -269.3C54.6 -271 109.2 -262.9 177.4 -247.6" fill="#75ff82"></path></g></svg>