<svg id="visual" viewBox="0 0 900 600" width="900" height="600" xmlns="http://www.w3.org/2000/svg" xmlns:xlink="http://www.w3.org/1999/xlink" version="1.1"><rect x="0" y="0" width="900" height="600" fill="#001220"></rect><path d="M0 399L16.7 390.2C33.3 381.3 66.7 363.7 100 359.3C133.3 355 166.7 364 200 366C233.3 368 266.7 363 300 370.8C333.3 378.7 366.7 399.3 400 398.5C433.3 397.7 466.7 375.3 500 374C533.3 372.7 566.7 392.3 600 400.2C633.3 408 666.7 404 700 391C733.3 378 766.7 356 800 358.3C833.3 360.7 866.7 387.3 883.3 400.7L900 414L900 601L883.3 601C866.7 601 833.3 601 800 601C766.7 601 733.3 601 700 601C666.7 601 633.3 601 600 601C566.7 601 533.3 601 500 601C466.7 601 433.3 601 400 601C366.7 601 333.3 601 300 601C266.7 601 233.3 601 200 601C166.7 601 133.3 601 100 601C66.7 601 33.3 601 16.7 601L0 601Z" fill="#41194c"></path><path d="M0 321L16.7 331.5C33.3 342 66.7 363 100 382.7C133.3 402.3 166.7 420.7 200 412.2C233.3 403.7 266.7 368.3 300 348.8C333.3 329.3 366.7 325.7 400 328.3C433.3 331 466.7 340 500 341.2C533.3 342.3 566.7 335.7 600 337.7C633.3 339.7 666.7 350.3 700 364.7C733.3 379 766.7 397 800 398.8C833.3 400.7 866.7 386.3 883.3 379.2L900 372L900 601L883.3 601C866.7 601 833.3 601 800 601C766.7 601 733.3 601 700 601C666.7 601 633.3 601 600 601C566.7 601 533.3 601 500 601C466.7 601 433.3 601 400 601C366.7 601 333.3 601 300 601C266.7 601 233.3 601 200 601C166.7 601 133.3 601 100 601C66.7 601 33.3 601 16.7 601L0 601Z" fill="#5a2256"></path><path d="M0 374L16.7 381.7C33.3 389.3 66.7 404.7 100 402.8C133.3 401 166.7 382 200 379.8C233.3 377.7 266.7 392.3 300 395.3C333.3 398.3 366.7 389.7 400 397.3C433.3 405 466.7 429 500 440C533.3 451 566.7 449 600 444.7C633.3 440.3 666.7 433.7 700 428.7C733.3 423.7 766.7 420.3 800 413.2C833.3 406 866.7 395 883.3 389.5L900 384L900 601L883.3 601C866.7 601 833.3 601 800 601C766.7 601 733.3 601 700 601C666.7 601 633.3 601 600 601C566.7 601 533.3 601 500 601C466.7 601 433.3 601 400 601C366.7 601 333.3 601 300 601C266.7 601 233.3 601 200 601C166.7 601 133.3 601 100 601C66.7 601 33.3 601 16.7 601L0 601Z" fill="#742b5f"></path><path d="M0 399L16.7 400.8C33.3 402.7 66.7 406.3 100 409.5C133.3 412.7 166.7 415.3 200 412C233.3 408.7 266.7 399.3 300 395.8C333.3 392.3 366.7 394.7 400 399.8C433.3 405 466.7 413 500 422C533.3 431 566.7 441 600 450.2C633.3 459.3 666.7 467.7 700 462.3C733.3 457 766.7 438 800 425.5C833.3 413 866.7 407 883.3 404L900 401L900 601L883.3 601C866.7 601 833.3 601 800 601C766.7 601 733.3 601 700 601C666.7 601 633.3 601 600 601C566.7 601 533.3 601 500 601C466.7 601 433.3 601 400 601C366.7 601 333.3 601 300 601C266.7 601 233.3 601 200 601C166.7 601 133.3 601 100 601C66.7 601 33.3 601 16.7 601L0 601Z" fill="#8d3666"></path><path d="M0 439L16.7 438.3C33.3 437.7 66.7 436.3 100 442C133.3 447.7 166.7 460.3 200 457C233.3 453.7 266.7 434.3 300 428.8C333.3 423.3 366.7 431.7 400 435C433.3 438.3 466.7 436.7 500 446.3C533.3 456 566.7 477 600 478C633.3 479 666.7 460 700 450C733.3 440 766.7 439 800 437C833.3 435 866.7 432 883.3 430.5L900 429L900 601L883.3 601C866.7 601 833.3 601 800 601C766.7 601 733.3 601 700 601C666.7 601 633.3 601 600 601C566.7 601 533.3 601 500 601C466.7 601 433.3 601 400 601C366.7 601 333.3 601 300 601C266.7 601 233.3 601 200 601C166.7 601 133.3 601 100 601C66.7 601 33.3 601 16.7 601L0 601Z" fill="#a6426c"></path><path d="M0 475L16.7 475C33.3 475 66.7 475 100 473C133.3 471 166.7 467 200 470.2C233.3 473.3 266.7 483.7 300 490.8C333.3 498 366.7 502 400 497.3C433.3 492.7 466.7 479.3 500 471.5C533.3 463.7 566.7 461.3 600 467.7C633.3 474 666.7 489 700 491C733.3 493 766.7 482 800 482C833.3 482 866.7 493 883.3 498.5L900 504L900 601L883.3 601C866.7 601 833.3 601 800 601C766.7 601 733.3 601 700 601C666.7 601 633.3 601 600 601C566.7 601 533.3 601 500 601C466.7 601 433.3 601 400 601C366.7 601 333.3 601 300 601C266.7 601 233.3 601 200 601C166.7 601 133.3 601 100 601C66.7 601 33.3 601 16.7 601L0 601Z" fill="#be4f70"></path><path d="M0 509L16.7 510.2C33.3 511.3 66.7 513.7 100 517C133.3 520.3 166.7 524.7 200 519C233.3 513.3 266.7 497.7 300 496.8C333.3 496 366.7 510 400 513C433.3 516 466.7 508 500 500C533.3 492 566.7 484 600 486.3C633.3 488.7 666.7 501.3 700 505.2C733.3 509 766.7 504 800 503.5C833.3 503 866.7 507 883.3 509L900 511L900 601L883.3 601C866.7 601 833.3 601 800 601C766.7 601 733.3 601 700 601C666.7 601 633.3 601 600 601C566.7 601 533.3 601 500 601C466.7 601 433.3 601 400 601C366.7 601 333.3 601 300 601C266.7 601 233.3 601 200 601C166.7 601 133.3 601 100 601C66.7 601 33.3 601 16.7 601L0 601Z" fill="#d55f73"></path><path d="M0 538L16.7 535.3C33.3 532.7 66.7 527.3 100 522.5C133.3 517.7 166.7 513.3 200 516.2C233.3 519 266.7 529 300 533.7C333.3 538.3 366.7 537.7 400 533C433.3 528.3 466.7 519.7 500 515.7C533.3 511.7 566.7 512.3 600 511.5C633.3 510.7 666.7 508.3 700 509.3C733.3 510.3 766.7 514.7 800 516.7C833.3 518.7 866.7 518.3 883.3 518.2L900 518L900 601L883.3 601C866.7 601 833.3 601 800 601C766.7 601 733.3 601 700 601C666.7 601 633.3 601 600 601C566.7 601 533.3 601 500 601C466.7 601 433.3 601 400 601C366.7 601 333.3 601 300 601C266.7 601 233.3 601 200 601C166.7 601 133.3 601 100 601C66.7 601 33.3 601 16.7 601L0 601Z" fill="#eb7075"></path><path d="M0 550L16.7 547.8C33.3 545.7 66.7 541.3 100 541.5C133.3 541.7 166.7 546.3 200 548.2C233.3 550 266.7 549 300 547C333.3 545 366.7 542 400 543C433.3 544 466.7 549 500 549.7C533.3 550.3 566.7 546.7 600 548.5C633.3 550.3 666.7 557.7 700 557.5C733.3 557.3 766.7 549.7 800 549.5C833.3 549.3 866.7 556.7 883.3 560.3L900 564L900 601L883.3 601C866.7 601 833.3 601 800 601C766.7 601 733.3 601 700 601C666.7 601 633.3 601 600 601C566.7 601 533.3 601 500 601C466.7 601 433.3 601 400 601C366.7 601 333.3 601 300 601C266.7 601 233.3 601 200 601C166.7 601 133.3 601 100 601C66.7 601 33.3 601 16.7 601L0 601Z" fill="#ff8276"></path></svg>