<svg id="visual" viewBox="0 0 900 600" width="900" height="600" xmlns="http://www.w3.org/2000/svg" xmlns:xlink="http://www.w3.org/1999/xlink" version="1.1"><rect x="0" y="0" width="900" height="600" fill="#001220"></rect><path d="M0 186L16.7 216.3C33.3 246.7 66.7 307.3 100 307.8C133.3 308.3 166.7 248.7 200 231C233.3 213.3 266.7 237.7 300 230.5C333.3 223.3 366.7 184.7 400 177C433.3 169.3 466.7 192.7 500 214.5C533.3 236.3 566.7 256.7 600 260.8C633.3 265 666.7 253 700 265.5C733.3 278 766.7 315 800 324.5C833.3 334 866.7 316 883.3 307L900 298L900 0L883.3 0C866.7 0 833.3 0 800 0C766.7 0 733.3 0 700 0C666.7 0 633.3 0 600 0C566.7 0 533.3 0 500 0C466.7 0 433.3 0 400 0C366.7 0 333.3 0 300 0C266.7 0 233.3 0 200 0C166.7 0 133.3 0 100 0C66.7 0 33.3 0 16.7 0L0 0Z" fill="#75ff82"></path><path d="M0 216L16.7 229.7C33.3 243.3 66.7 270.7 100 258.2C133.3 245.7 166.7 193.3 200 179.5C233.3 165.7 266.7 190.3 300 197.2C333.3 204 366.7 193 400 184.7C433.3 176.3 466.7 170.7 500 179.7C533.3 188.7 566.7 212.3 600 223.7C633.3 235 666.7 234 700 229.8C733.3 225.7 766.7 218.3 800 219.7C833.3 221 866.7 231 883.3 236L900 241L900 0L883.3 0C866.7 0 833.3 0 800 0C766.7 0 733.3 0 700 0C666.7 0 633.3 0 600 0C566.7 0 533.3 0 500 0C466.7 0 433.3 0 400 0C366.7 0 333.3 0 300 0C266.7 0 233.3 0 200 0C166.7 0 133.3 0 100 0C66.7 0 33.3 0 16.7 0L0 0Z" fill="#00e3c1"></path><path d="M0 160L16.7 161.3C33.3 162.7 66.7 165.3 100 176.5C133.3 187.7 166.7 207.3 200 200.8C233.3 194.3 266.7 161.7 300 169.3C333.3 177 366.7 225 400 224.7C433.3 224.3 466.7 175.7 500 158.3C533.3 141 566.7 155 600 155.3C633.3 155.7 666.7 142.3 700 143.7C733.3 145 766.7 161 800 169.2C833.3 177.3 866.7 177.7 883.3 177.8L900 178L900 0L883.3 0C866.7 0 833.3 0 800 0C766.7 0 733.3 0 700 0C666.7 0 633.3 0 600 0C566.7 0 533.3 0 500 0C466.7 0 433.3 0 400 0C366.7 0 333.3 0 300 0C266.7 0 233.3 0 200 0C166.7 0 133.3 0 100 0C66.7 0 33.3 0 16.7 0L0 0Z" fill="#00bedf"></path><path d="M0 147L16.7 138.2C33.3 129.3 66.7 111.7 100 122.3C133.3 133 166.7 172 200 174.8C233.3 177.7 266.7 144.3 300 133C333.3 121.7 366.7 132.3 400 142.5C433.3 152.7 466.7 162.3 500 168C533.3 173.7 566.7 175.3 600 161.5C633.3 147.7 666.7 118.3 700 115.2C733.3 112 766.7 135 800 135.3C833.3 135.7 866.7 113.3 883.3 102.2L900 91L900 0L883.3 0C866.7 0 833.3 0 800 0C766.7 0 733.3 0 700 0C666.7 0 633.3 0 600 0C566.7 0 533.3 0 500 0C466.7 0 433.3 0 400 0C366.7 0 333.3 0 300 0C266.7 0 233.3 0 200 0C166.7 0 133.3 0 100 0C66.7 0 33.3 0 16.7 0L0 0Z" fill="#0094ce"></path><path d="M0 168L16.7 163.2C33.3 158.3 66.7 148.7 100 144.8C133.3 141 166.7 143 200 134.5C233.3 126 266.7 107 300 105.3C333.3 103.7 366.7 119.3 400 132.2C433.3 145 466.7 155 500 152.7C533.3 150.3 566.7 135.7 600 124.3C633.3 113 666.7 105 700 111.5C733.3 118 766.7 139 800 144.8C833.3 150.7 866.7 141.3 883.3 136.7L900 132L900 0L883.3 0C866.7 0 833.3 0 800 0C766.7 0 733.3 0 700 0C666.7 0 633.3 0 600 0C566.7 0 533.3 0 500 0C466.7 0 433.3 0 400 0C366.7 0 333.3 0 300 0C266.7 0 233.3 0 200 0C166.7 0 133.3 0 100 0C66.7 0 33.3 0 16.7 0L0 0Z" fill="#366aaa"></path><path d="M0 84L16.7 78.2C33.3 72.3 66.7 60.7 100 63.2C133.3 65.7 166.7 82.3 200 94C233.3 105.7 266.7 112.3 300 105.8C333.3 99.3 366.7 79.7 400 80.5C433.3 81.3 466.7 102.7 500 106.7C533.3 110.7 566.7 97.3 600 94.2C633.3 91 666.7 98 700 100.2C733.3 102.3 766.7 99.7 800 96.2C833.3 92.7 866.7 88.3 883.3 86.2L900 84L900 0L883.3 0C866.7 0 833.3 0 800 0C766.7 0 733.3 0 700 0C666.7 0 633.3 0 600 0C566.7 0 533.3 0 500 0C466.7 0 433.3 0 400 0C366.7 0 333.3 0 300 0C266.7 0 233.3 0 200 0C166.7 0 133.3 0 100 0C66.7 0 33.3 0 16.7 0L0 0Z" fill="#44417d"></path><path d="M0 58L16.7 60C33.3 62 66.7 66 100 62.8C133.3 59.7 166.7 49.3 200 43.8C233.3 38.3 266.7 37.7 300 42.8C333.3 48 366.7 59 400 64.2C433.3 69.3 466.7 68.7 500 69C533.3 69.3 566.7 70.7 600 66.8C633.3 63 666.7 54 700 49.5C733.3 45 766.7 45 800 47.3C833.3 49.7 866.7 54.3 883.3 56.7L900 59L900 0L883.3 0C866.7 0 833.3 0 800 0C766.7 0 733.3 0 700 0C666.7 0 633.3 0 600 0C566.7 0 533.3 0 500 0C466.7 0 433.3 0 400 0C366.7 0 333.3 0 300 0C266.7 0 233.3 0 200 0C166.7 0 133.3 0 100 0C66.7 0 33.3 0 16.7 0L0 0Z" fill="#41194c"></path></svg>