<svg id="visual" viewBox="0 0 900 600" width="900" height="600" xmlns="http://www.w3.org/2000/svg" xmlns:xlink="http://www.w3.org/1999/xlink" version="1.1"><rect x="0" y="0" width="900" height="600" fill="#001220"></rect><path d="M0 199L16.7 207.8C33.3 216.7 66.7 234.3 100 238.7C133.3 243 166.7 234 200 232C233.3 230 266.7 235 300 227.2C333.3 219.3 366.7 198.7 400 199.5C433.3 200.3 466.7 222.7 500 224C533.3 225.3 566.7 205.7 600 197.8C633.3 190 666.7 194 700 207C733.3 220 766.7 242 800 239.7C833.3 237.3 866.7 210.7 883.3 197.3L900 184L900 0L883.3 0C866.7 0 833.3 0 800 0C766.7 0 733.3 0 700 0C666.7 0 633.3 0 600 0C566.7 0 533.3 0 500 0C466.7 0 433.3 0 400 0C366.7 0 333.3 0 300 0C266.7 0 233.3 0 200 0C166.7 0 133.3 0 100 0C66.7 0 33.3 0 16.7 0L0 0Z" fill="#75ff82"></path><path d="M0 277L16.7 266.5C33.3 256 66.7 235 100 215.3C133.3 195.7 166.7 177.3 200 185.8C233.3 194.3 266.7 229.7 300 249.2C333.3 268.7 366.7 272.3 400 269.7C433.3 267 466.7 258 500 256.8C533.3 255.7 566.7 262.3 600 260.3C633.3 258.3 666.7 247.7 700 233.3C733.3 219 766.7 201 800 199.2C833.3 197.3 866.7 211.7 883.3 218.8L900 226L900 0L883.3 0C866.7 0 833.3 0 800 0C766.7 0 733.3 0 700 0C666.7 0 633.3 0 600 0C566.7 0 533.3 0 500 0C466.7 0 433.3 0 400 0C366.7 0 333.3 0 300 0C266.7 0 233.3 0 200 0C166.7 0 133.3 0 100 0C66.7 0 33.3 0 16.7 0L0 0Z" fill="#00ebb3"></path><path d="M0 224L16.7 216.3C33.3 208.7 66.7 193.3 100 195.2C133.3 197 166.7 216 200 218.2C233.3 220.3 266.7 205.7 300 202.7C333.3 199.7 366.7 208.3 400 200.7C433.3 193 466.7 169 500 158C533.3 147 566.7 149 600 153.3C633.3 157.7 666.7 164.3 700 169.3C733.3 174.3 766.7 177.7 800 184.8C833.3 192 866.7 203 883.3 208.5L900 214L900 0L883.3 0C866.7 0 833.3 0 800 0C766.7 0 733.3 0 700 0C666.7 0 633.3 0 600 0C566.7 0 533.3 0 500 0C466.7 0 433.3 0 400 0C366.7 0 333.3 0 300 0C266.7 0 233.3 0 200 0C166.7 0 133.3 0 100 0C66.7 0 33.3 0 16.7 0L0 0Z" fill="#00d1d5"></path><path d="M0 199L16.7 197.2C33.3 195.3 66.7 191.7 100 188.5C133.3 185.3 166.7 182.7 200 186C233.3 189.3 266.7 198.7 300 202.2C333.3 205.7 366.7 203.3 400 198.2C433.3 193 466.7 185 500 176C533.3 167 566.7 157 600 147.8C633.3 138.7 666.7 130.3 700 135.7C733.3 141 766.7 160 800 172.5C833.3 185 866.7 191 883.3 194L900 197L900 0L883.3 0C866.7 0 833.3 0 800 0C766.7 0 733.3 0 700 0C666.7 0 633.3 0 600 0C566.7 0 533.3 0 500 0C466.7 0 433.3 0 400 0C366.7 0 333.3 0 300 0C266.7 0 233.3 0 200 0C166.7 0 133.3 0 100 0C66.7 0 33.3 0 16.7 0L0 0Z" fill="#00b4df"></path><path d="M0 159L16.7 159.7C33.3 160.3 66.7 161.7 100 156C133.3 150.3 166.7 137.7 200 141C233.3 144.3 266.7 163.7 300 169.2C333.3 174.7 366.7 166.3 400 163C433.3 159.7 466.7 161.3 500 151.7C533.3 142 566.7 121 600 120C633.3 119 666.7 138 700 148C733.3 158 766.7 159 800 161C833.3 163 866.7 166 883.3 167.5L900 169L900 0L883.3 0C866.7 0 833.3 0 800 0C766.7 0 733.3 0 700 0C666.7 0 633.3 0 600 0C566.7 0 533.3 0 500 0C466.7 0 433.3 0 400 0C366.7 0 333.3 0 300 0C266.7 0 233.3 0 200 0C166.7 0 133.3 0 100 0C66.7 0 33.3 0 16.7 0L0 0Z" fill="#0094ce"></path><path d="M0 123L16.7 123C33.3 123 66.7 123 100 125C133.3 127 166.7 131 200 127.8C233.3 124.7 266.7 114.3 300 107.2C333.3 100 366.7 96 400 100.7C433.3 105.3 466.7 118.7 500 126.5C533.3 134.3 566.7 136.7 600 130.3C633.3 124 666.7 109 700 107C733.3 105 766.7 116 800 116C833.3 116 866.7 105 883.3 99.5L900 94L900 0L883.3 0C866.7 0 833.3 0 800 0C766.7 0 733.3 0 700 0C666.7 0 633.3 0 600 0C566.7 0 533.3 0 500 0C466.7 0 433.3 0 400 0C366.7 0 333.3 0 300 0C266.7 0 233.3 0 200 0C166.7 0 133.3 0 100 0C66.7 0 33.3 0 16.7 0L0 0Z" fill="#2e74b4"></path><path d="M0 89L16.7 87.8C33.3 86.7 66.7 84.3 100 81C133.3 77.7 166.7 73.3 200 79C233.3 84.7 266.7 100.3 300 101.2C333.3 102 366.7 88 400 85C433.3 82 466.7 90 500 98C533.3 106 566.7 114 600 111.7C633.3 109.3 666.7 96.7 700 92.8C733.3 89 766.7 94 800 94.5C833.3 95 866.7 91 883.3 89L900 87L900 0L883.3 0C866.7 0 833.3 0 800 0C766.7 0 733.3 0 700 0C666.7 0 633.3 0 600 0C566.7 0 533.3 0 500 0C466.7 0 433.3 0 400 0C366.7 0 333.3 0 300 0C266.7 0 233.3 0 200 0C166.7 0 133.3 0 100 0C66.7 0 33.3 0 16.7 0L0 0Z" fill="#405594"></path><path d="M0 60L16.7 62.7C33.3 65.3 66.7 70.7 100 75.5C133.3 80.3 166.7 84.7 200 81.8C233.3 79 266.7 69 300 64.3C333.3 59.7 366.7 60.3 400 65C433.3 69.7 466.7 78.3 500 82.3C533.3 86.3 566.7 85.7 600 86.5C633.3 87.3 666.7 89.7 700 88.7C733.3 87.7 766.7 83.3 800 81.3C833.3 79.3 866.7 79.7 883.3 79.8L900 80L900 0L883.3 0C866.7 0 833.3 0 800 0C766.7 0 733.3 0 700 0C666.7 0 633.3 0 600 0C566.7 0 533.3 0 500 0C466.7 0 433.3 0 400 0C366.7 0 333.3 0 300 0C266.7 0 233.3 0 200 0C166.7 0 133.3 0 100 0C66.7 0 33.3 0 16.7 0L0 0Z" fill="#453771"></path><path d="M0 48L16.7 50.2C33.3 52.3 66.7 56.7 100 56.5C133.3 56.3 166.7 51.7 200 49.8C233.3 48 266.7 49 300 51C333.3 53 366.7 56 400 55C433.3 54 466.7 49 500 48.3C533.3 47.7 566.7 51.3 600 49.5C633.3 47.7 666.7 40.3 700 40.5C733.3 40.7 766.7 48.3 800 48.5C833.3 48.7 866.7 41.3 883.3 37.7L900 34L900 0L883.3 0C866.7 0 833.3 0 800 0C766.7 0 733.3 0 700 0C666.7 0 633.3 0 600 0C566.7 0 533.3 0 500 0C466.7 0 433.3 0 400 0C366.7 0 333.3 0 300 0C266.7 0 233.3 0 200 0C166.7 0 133.3 0 100 0C66.7 0 33.3 0 16.7 0L0 0Z" fill="#41194c"></path></svg>