<svg id="visual" viewBox="0 0 960 540" width="960" height="540" xmlns="http://www.w3.org/2000/svg" xmlns:xlink="http://www.w3.org/1999/xlink" version="1.1"><rect x="0" y="0" width="960" height="540" fill="#001220"></rect><path d="M0 236L17.8 224.2C35.7 212.3 71.3 188.7 106.8 179.7C142.3 170.7 177.7 176.3 213.2 172.8C248.7 169.3 284.3 156.7 320 150.7C355.7 144.7 391.3 145.3 426.8 143.5C462.3 141.7 497.7 137.3 533.2 143.7C568.7 150 604.3 167 640 181.8C675.7 196.7 711.3 209.3 746.8 214.3C782.3 219.3 817.7 216.7 853.2 212.8C888.7 209 924.3 204 942.2 201.5L960 199L960 0L942.2 0C924.3 0 888.7 0 853.2 0C817.7 0 782.3 0 746.8 0C711.3 0 675.7 0 640 0C604.3 0 568.7 0 533.2 0C497.7 0 462.3 0 426.8 0C391.3 0 355.7 0 320 0C284.3 0 248.7 0 213.2 0C177.7 0 142.3 0 106.8 0C71.3 0 35.7 0 17.8 0L0 0Z" fill="#75ff82"></path><path d="M0 208L17.8 201.5C35.7 195 71.3 182 106.8 177.8C142.3 173.7 177.7 178.3 213.2 179.5C248.7 180.7 284.3 178.3 320 169.7C355.7 161 391.3 146 426.8 139.8C462.3 133.7 497.7 136.3 533.2 144.7C568.7 153 604.3 167 640 167.7C675.7 168.3 711.3 155.7 746.8 143C782.3 130.3 817.7 117.7 853.2 129.8C888.7 142 924.3 179 942.2 197.5L960 216L960 0L942.2 0C924.3 0 888.7 0 853.2 0C817.7 0 782.3 0 746.8 0C711.3 0 675.7 0 640 0C604.3 0 568.7 0 533.2 0C497.7 0 462.3 0 426.8 0C391.3 0 355.7 0 320 0C284.3 0 248.7 0 213.2 0C177.7 0 142.3 0 106.8 0C71.3 0 35.7 0 17.8 0L0 0Z" fill="#00e7b9"></path><path d="M0 184L17.8 177.2C35.7 170.3 71.3 156.7 106.8 151.3C142.3 146 177.7 149 213.2 138.2C248.7 127.3 284.3 102.7 320 105.8C355.7 109 391.3 140 426.8 140.3C462.3 140.7 497.7 110.3 533.2 101.8C568.7 93.3 604.3 106.7 640 122.2C675.7 137.7 711.3 155.3 746.8 163.7C782.3 172 817.7 171 853.2 170.3C888.7 169.7 924.3 169.3 942.2 169.2L960 169L960 0L942.2 0C924.3 0 888.7 0 853.2 0C817.7 0 782.3 0 746.8 0C711.3 0 675.7 0 640 0C604.3 0 568.7 0 533.2 0C497.7 0 462.3 0 426.8 0C391.3 0 355.7 0 320 0C284.3 0 248.7 0 213.2 0C177.7 0 142.3 0 106.8 0C71.3 0 35.7 0 17.8 0L0 0Z" fill="#00c9db"></path><path d="M0 67L17.8 82.2C35.7 97.3 71.3 127.7 106.8 142.7C142.3 157.7 177.7 157.3 213.2 153.2C248.7 149 284.3 141 320 133.8C355.7 126.7 391.3 120.3 426.8 119.8C462.3 119.3 497.7 124.7 533.2 120.8C568.7 117 604.3 104 640 95.5C675.7 87 711.3 83 746.8 84.8C782.3 86.7 817.7 94.3 853.2 98.3C888.7 102.3 924.3 102.7 942.2 102.8L960 103L960 0L942.2 0C924.3 0 888.7 0 853.2 0C817.7 0 782.3 0 746.8 0C711.3 0 675.7 0 640 0C604.3 0 568.7 0 533.2 0C497.7 0 462.3 0 426.8 0C391.3 0 355.7 0 320 0C284.3 0 248.7 0 213.2 0C177.7 0 142.3 0 106.8 0C71.3 0 35.7 0 17.8 0L0 0Z" fill="#00a6db"></path><path d="M0 131L17.8 125.7C35.7 120.3 71.3 109.7 106.8 105.7C142.3 101.7 177.7 104.3 213.2 106C248.7 107.7 284.3 108.3 320 103.5C355.7 98.7 391.3 88.3 426.8 88C462.3 87.7 497.7 97.3 533.2 104.3C568.7 111.3 604.3 115.7 640 108C675.7 100.3 711.3 80.7 746.8 75C782.3 69.3 817.7 77.7 853.2 81.7C888.7 85.7 924.3 85.3 942.2 85.2L960 85L960 0L942.2 0C924.3 0 888.7 0 853.2 0C817.7 0 782.3 0 746.8 0C711.3 0 675.7 0 640 0C604.3 0 568.7 0 533.2 0C497.7 0 462.3 0 426.8 0C391.3 0 355.7 0 320 0C284.3 0 248.7 0 213.2 0C177.7 0 142.3 0 106.8 0C71.3 0 35.7 0 17.8 0L0 0Z" fill="#2282c0"></path><path d="M0 75L17.8 69.7C35.7 64.3 71.3 53.7 106.8 56C142.3 58.3 177.7 73.7 213.2 76.8C248.7 80 284.3 71 320 67C355.7 63 391.3 64 426.8 71C462.3 78 497.7 91 533.2 92C568.7 93 604.3 82 640 80.3C675.7 78.7 711.3 86.3 746.8 90.5C782.3 94.7 817.7 95.3 853.2 96.5C888.7 97.7 924.3 99.3 942.2 100.2L960 101L960 0L942.2 0C924.3 0 888.7 0 853.2 0C817.7 0 782.3 0 746.8 0C711.3 0 675.7 0 640 0C604.3 0 568.7 0 533.2 0C497.7 0 462.3 0 426.8 0C391.3 0 355.7 0 320 0C284.3 0 248.7 0 213.2 0C177.7 0 142.3 0 106.8 0C71.3 0 35.7 0 17.8 0L0 0Z" fill="#3c5e9d"></path><path d="M0 77L17.8 74C35.7 71 71.3 65 106.8 59.3C142.3 53.7 177.7 48.3 213.2 51.3C248.7 54.3 284.3 65.7 320 71.3C355.7 77 391.3 77 426.8 75.3C462.3 73.7 497.7 70.3 533.2 67.3C568.7 64.3 604.3 61.7 640 62C675.7 62.3 711.3 65.7 746.8 64.8C782.3 64 817.7 59 853.2 53.8C888.7 48.7 924.3 43.3 942.2 40.7L960 38L960 0L942.2 0C924.3 0 888.7 0 853.2 0C817.7 0 782.3 0 746.8 0C711.3 0 675.7 0 640 0C604.3 0 568.7 0 533.2 0C497.7 0 462.3 0 426.8 0C391.3 0 355.7 0 320 0C284.3 0 248.7 0 213.2 0C177.7 0 142.3 0 106.8 0C71.3 0 35.7 0 17.8 0L0 0Z" fill="#453b76"></path><path d="M0 22L17.8 26.5C35.7 31 71.3 40 106.8 43C142.3 46 177.7 43 213.2 41.2C248.7 39.3 284.3 38.7 320 38.3C355.7 38 391.3 38 426.8 40C462.3 42 497.7 46 533.2 43C568.7 40 604.3 30 640 26.3C675.7 22.7 711.3 25.3 746.8 25.3C782.3 25.3 817.7 22.7 853.2 22.2C888.7 21.7 924.3 23.3 942.2 24.2L960 25L960 0L942.2 0C924.3 0 888.7 0 853.2 0C817.7 0 782.3 0 746.8 0C711.3 0 675.7 0 640 0C604.3 0 568.7 0 533.2 0C497.7 0 462.3 0 426.8 0C391.3 0 355.7 0 320 0C284.3 0 248.7 0 213.2 0C177.7 0 142.3 0 106.8 0C71.3 0 35.7 0 17.8 0L0 0Z" fill="#41194c"></path></svg>