<svg id="visual" viewBox="0 0 960 540" width="960" height="540" xmlns="http://www.w3.org/2000/svg" xmlns:xlink="http://www.w3.org/1999/xlink" version="1.1"><rect x="0" y="0" width="960" height="540" fill="#001220"></rect><path d="M0 393L17.8 373.3C35.7 353.7 71.3 314.3 106.8 299.3C142.3 284.3 177.7 293.7 213.2 287.8C248.7 282 284.3 261 320 251.2C355.7 241.3 391.3 242.7 426.8 239.8C462.3 237 497.7 230 533.2 240.7C568.7 251.3 604.3 279.7 640 304.2C675.7 328.7 711.3 349.3 746.8 357.7C782.3 366 817.7 362 853.2 355.7C888.7 349.3 924.3 340.7 942.2 336.3L960 332L960 0L942.2 0C924.3 0 888.7 0 853.2 0C817.7 0 782.3 0 746.8 0C711.3 0 675.7 0 640 0C604.3 0 568.7 0 533.2 0C497.7 0 462.3 0 426.8 0C391.3 0 355.7 0 320 0C284.3 0 248.7 0 213.2 0C177.7 0 142.3 0 106.8 0C71.3 0 35.7 0 17.8 0L0 0Z" fill="#75ff82"></path><path d="M0 347L17.8 336.3C35.7 325.7 71.3 304.3 106.8 297.5C142.3 290.7 177.7 298.3 213.2 300.3C248.7 302.3 284.3 298.7 320 284.2C355.7 269.7 391.3 244.3 426.8 233.8C462.3 223.3 497.7 227.7 533.2 241.5C568.7 255.3 604.3 278.7 640 279.7C675.7 280.7 711.3 259.3 746.8 238.3C782.3 217.3 817.7 196.7 853.2 217.2C888.7 237.7 924.3 299.3 942.2 330.2L960 361L960 0L942.2 0C924.3 0 888.7 0 853.2 0C817.7 0 782.3 0 746.8 0C711.3 0 675.7 0 640 0C604.3 0 568.7 0 533.2 0C497.7 0 462.3 0 426.8 0C391.3 0 355.7 0 320 0C284.3 0 248.7 0 213.2 0C177.7 0 142.3 0 106.8 0C71.3 0 35.7 0 17.8 0L0 0Z" fill="#00e7b9"></path><path d="M0 307L17.8 295.5C35.7 284 71.3 261 106.8 252.2C142.3 243.3 177.7 248.7 213.2 230.7C248.7 212.7 284.3 171.3 320 176.7C355.7 182 391.3 234 426.8 234.7C462.3 235.3 497.7 184.7 533.2 170.5C568.7 156.3 604.3 178.7 640 204.5C675.7 230.3 711.3 259.7 746.8 273.7C782.3 287.7 817.7 286.3 853.2 285.2C888.7 284 924.3 283 942.2 282.5L960 282L960 0L942.2 0C924.3 0 888.7 0 853.2 0C817.7 0 782.3 0 746.8 0C711.3 0 675.7 0 640 0C604.3 0 568.7 0 533.2 0C497.7 0 462.3 0 426.8 0C391.3 0 355.7 0 320 0C284.3 0 248.7 0 213.2 0C177.7 0 142.3 0 106.8 0C71.3 0 35.7 0 17.8 0L0 0Z" fill="#00c9db"></path><path d="M0 112L17.8 137.3C35.7 162.7 71.3 213.3 106.8 238.5C142.3 263.7 177.7 263.3 213.2 256.3C248.7 249.3 284.3 235.7 320 223.7C355.7 211.7 391.3 201.3 426.8 200.7C462.3 200 497.7 209 533.2 202.7C568.7 196.3 604.3 174.7 640 160.3C675.7 146 711.3 139 746.8 142C782.3 145 817.7 158 853.2 164.8C888.7 171.7 924.3 172.3 942.2 172.7L960 173L960 0L942.2 0C924.3 0 888.7 0 853.2 0C817.7 0 782.3 0 746.8 0C711.3 0 675.7 0 640 0C604.3 0 568.7 0 533.2 0C497.7 0 462.3 0 426.8 0C391.3 0 355.7 0 320 0C284.3 0 248.7 0 213.2 0C177.7 0 142.3 0 106.8 0C71.3 0 35.7 0 17.8 0L0 0Z" fill="#00a6db"></path><path d="M0 219L17.8 210C35.7 201 71.3 183 106.8 176.3C142.3 169.7 177.7 174.3 213.2 177.2C248.7 180 284.3 181 320 173C355.7 165 391.3 148 426.8 147.5C462.3 147 497.7 163 533.2 174.7C568.7 186.3 604.3 193.7 640 181C675.7 168.3 711.3 135.7 746.8 126.2C782.3 116.7 817.7 130.3 853.2 136.8C888.7 143.3 924.3 142.7 942.2 142.3L960 142L960 0L942.2 0C924.3 0 888.7 0 853.2 0C817.7 0 782.3 0 746.8 0C711.3 0 675.7 0 640 0C604.3 0 568.7 0 533.2 0C497.7 0 462.3 0 426.8 0C391.3 0 355.7 0 320 0C284.3 0 248.7 0 213.2 0C177.7 0 142.3 0 106.8 0C71.3 0 35.7 0 17.8 0L0 0Z" fill="#2282c0"></path><path d="M0 125L17.8 116.2C35.7 107.3 71.3 89.7 106.8 93.5C142.3 97.3 177.7 122.7 213.2 128C248.7 133.3 284.3 118.7 320 112.3C355.7 106 391.3 108 426.8 119.7C462.3 131.3 497.7 152.7 533.2 154.2C568.7 155.7 604.3 137.3 640 134.5C675.7 131.7 711.3 144.3 746.8 151.2C782.3 158 817.7 159 853.2 160.8C888.7 162.7 924.3 165.3 942.2 166.7L960 168L960 0L942.2 0C924.3 0 888.7 0 853.2 0C817.7 0 782.3 0 746.8 0C711.3 0 675.7 0 640 0C604.3 0 568.7 0 533.2 0C497.7 0 462.3 0 426.8 0C391.3 0 355.7 0 320 0C284.3 0 248.7 0 213.2 0C177.7 0 142.3 0 106.8 0C71.3 0 35.7 0 17.8 0L0 0Z" fill="#3c5e9d"></path><path d="M0 129L17.8 124C35.7 119 71.3 109 106.8 99.7C142.3 90.3 177.7 81.7 213.2 86.7C248.7 91.7 284.3 110.3 320 119.5C355.7 128.7 391.3 128.3 426.8 125.5C462.3 122.7 497.7 117.3 533.2 112.5C568.7 107.7 604.3 103.3 640 104C675.7 104.7 711.3 110.3 746.8 108.8C782.3 107.3 817.7 98.7 853.2 90.2C888.7 81.7 924.3 73.3 942.2 69.2L960 65L960 0L942.2 0C924.3 0 888.7 0 853.2 0C817.7 0 782.3 0 746.8 0C711.3 0 675.7 0 640 0C604.3 0 568.7 0 533.2 0C497.7 0 462.3 0 426.8 0C391.3 0 355.7 0 320 0C284.3 0 248.7 0 213.2 0C177.7 0 142.3 0 106.8 0C71.3 0 35.7 0 17.8 0L0 0Z" fill="#453b76"></path><path d="M0 37L17.8 44.7C35.7 52.3 71.3 67.7 106.8 72.7C142.3 77.7 177.7 72.3 213.2 69.2C248.7 66 284.3 65 320 64.3C355.7 63.7 391.3 63.3 426.8 66.7C462.3 70 497.7 77 533.2 72.2C568.7 67.3 604.3 50.7 640 44.5C675.7 38.3 711.3 42.7 746.8 42.7C782.3 42.7 817.7 38.3 853.2 37.7C888.7 37 924.3 40 942.2 41.5L960 43L960 0L942.2 0C924.3 0 888.7 0 853.2 0C817.7 0 782.3 0 746.8 0C711.3 0 675.7 0 640 0C604.3 0 568.7 0 533.2 0C497.7 0 462.3 0 426.8 0C391.3 0 355.7 0 320 0C284.3 0 248.7 0 213.2 0C177.7 0 142.3 0 106.8 0C71.3 0 35.7 0 17.8 0L0 0Z" fill="#41194c"></path></svg>