<svg id="visual" viewBox="0 0 900 600" width="900" height="600" xmlns="http://www.w3.org/2000/svg" xmlns:xlink="http://www.w3.org/1999/xlink" version="1.1"><path d="M0 237L21.5 242.5C43 248 86 259 128.8 274C171.7 289 214.3 308 257.2 301.2C300 294.3 343 261.7 385.8 263.3C428.7 265 471.3 301 514.2 297.8C557 294.7 600 252.3 642.8 253.8C685.7 255.3 728.3 300.7 771.2 314.2C814 327.7 857 309.3 878.5 300.2L900 291L900 0L878.5 0C857 0 814 0 771.2 0C728.3 0 685.7 0 642.8 0C600 0 557 0 514.2 0C471.3 0 428.7 0 385.8 0C343 0 300 0 257.2 0C214.3 0 171.7 0 128.8 0C86 0 43 0 21.5 0L0 0Z" fill="#a87035"></path><path d="M0 233L21.5 222.8C43 212.7 86 192.3 128.8 200.3C171.7 208.3 214.3 244.7 257.2 261.7C300 278.7 343 276.3 385.8 270.8C428.7 265.3 471.3 256.7 514.2 239.5C557 222.3 600 196.7 642.8 197.3C685.7 198 728.3 225 771.2 250.5C814 276 857 300 878.5 312L900 324L900 0L878.5 0C857 0 814 0 771.2 0C728.3 0 685.7 0 642.8 0C600 0 557 0 514.2 0C471.3 0 428.7 0 385.8 0C343 0 300 0 257.2 0C214.3 0 171.7 0 128.8 0C86 0 43 0 21.5 0L0 0Z" fill="#a65d36"></path><path d="M0 154L21.5 156.7C43 159.3 86 164.7 128.8 184.2C171.7 203.7 214.3 237.3 257.2 240.2C300 243 343 215 385.8 195.2C428.7 175.3 471.3 163.7 514.2 166.2C557 168.7 600 185.3 642.8 198C685.7 210.7 728.3 219.3 771.2 230.7C814 242 857 256 878.5 263L900 270L900 0L878.5 0C857 0 814 0 771.2 0C728.3 0 685.7 0 642.8 0C600 0 557 0 514.2 0C471.3 0 428.7 0 385.8 0C343 0 300 0 257.2 0C214.3 0 171.7 0 128.8 0C86 0 43 0 21.5 0L0 0Z" fill="#a14b39"></path><path d="M0 182L21.5 176.3C43 170.7 86 159.3 128.8 167.2C171.7 175 214.3 202 257.2 217.3C300 232.7 343 236.3 385.8 222C428.7 207.7 471.3 175.3 514.2 167.8C557 160.3 600 177.7 642.8 192C685.7 206.3 728.3 217.7 771.2 207.5C814 197.3 857 165.7 878.5 149.8L900 134L900 0L878.5 0C857 0 814 0 771.2 0C728.3 0 685.7 0 642.8 0C600 0 557 0 514.2 0C471.3 0 428.7 0 385.8 0C343 0 300 0 257.2 0C214.3 0 171.7 0 128.8 0C86 0 43 0 21.5 0L0 0Z" fill="#98393f"></path><path d="M0 127L21.5 132.8C43 138.7 86 150.3 128.8 151.5C171.7 152.7 214.3 143.3 257.2 149.2C300 155 343 176 385.8 185.3C428.7 194.7 471.3 192.3 514.2 181.3C557 170.3 600 150.7 642.8 136.3C685.7 122 728.3 113 771.2 120.8C814 128.7 857 153.3 878.5 165.7L900 178L900 0L878.5 0C857 0 814 0 771.2 0C728.3 0 685.7 0 642.8 0C600 0 557 0 514.2 0C471.3 0 428.7 0 385.8 0C343 0 300 0 257.2 0C214.3 0 171.7 0 128.8 0C86 0 43 0 21.5 0L0 0Z" fill="#8b2a45"></path><path d="M0 147L21.5 145.3C43 143.7 86 140.3 128.8 134.5C171.7 128.7 214.3 120.3 257.2 119C300 117.7 343 123.3 385.8 119.2C428.7 115 471.3 101 514.2 94.7C557 88.3 600 89.7 642.8 98.7C685.7 107.7 728.3 124.3 771.2 123.5C814 122.7 857 104.3 878.5 95.2L900 86L900 0L878.5 0C857 0 814 0 771.2 0C728.3 0 685.7 0 642.8 0C600 0 557 0 514.2 0C471.3 0 428.7 0 385.8 0C343 0 300 0 257.2 0C214.3 0 171.7 0 128.8 0C86 0 43 0 21.5 0L0 0Z" fill="#7a1e4b"></path><path d="M0 80L21.5 80.5C43 81 86 82 128.8 82.5C171.7 83 214.3 83 257.2 92C300 101 343 119 385.8 120.7C428.7 122.3 471.3 107.7 514.2 100C557 92.3 600 91.7 642.8 87.3C685.7 83 728.3 75 771.2 81C814 87 857 107 878.5 117L900 127L900 0L878.5 0C857 0 814 0 771.2 0C728.3 0 685.7 0 642.8 0C600 0 557 0 514.2 0C471.3 0 428.7 0 385.8 0C343 0 300 0 257.2 0C214.3 0 171.7 0 128.8 0C86 0 43 0 21.5 0L0 0Z" fill="#661650"></path><path d="M0 67L21.5 71C43 75 86 83 128.8 86.8C171.7 90.7 214.3 90.3 257.2 87.2C300 84 343 78 385.8 76.2C428.7 74.3 471.3 76.7 514.2 78.7C557 80.7 600 82.3 642.8 78.5C685.7 74.7 728.3 65.3 771.2 60.3C814 55.3 857 54.7 878.5 54.3L900 54L900 0L878.5 0C857 0 814 0 771.2 0C728.3 0 685.7 0 642.8 0C600 0 557 0 514.2 0C471.3 0 428.7 0 385.8 0C343 0 300 0 257.2 0C214.3 0 171.7 0 128.8 0C86 0 43 0 21.5 0L0 0Z" fill="#4d1453"></path><path d="M0 60L21.5 59.5C43 59 86 58 128.8 58C171.7 58 214.3 59 257.2 56.2C300 53.3 343 46.7 385.8 44.8C428.7 43 471.3 46 514.2 44.7C557 43.3 600 37.7 642.8 37.5C685.7 37.3 728.3 42.7 771.2 45.7C814 48.7 857 49.3 878.5 49.7L900 50L900 0L878.5 0C857 0 814 0 771.2 0C728.3 0 685.7 0 642.8 0C600 0 557 0 514.2 0C471.3 0 428.7 0 385.8 0C343 0 300 0 257.2 0C214.3 0 171.7 0 128.8 0C86 0 43 0 21.5 0L0 0Z" fill="#2e1554"></path></svg>