<svg id="visual" viewBox="0 0 960 540" width="960" height="540" xmlns="http://www.w3.org/2000/svg" xmlns:xlink="http://www.w3.org/1999/xlink" version="1.1"><rect x="0" y="0" width="960" height="540" fill="#001220"></rect><path d="M0 138L13.3 131.8C26.7 125.7 53.3 113.3 80 118.2C106.7 123 133.3 145 160 166.8C186.7 188.7 213.3 210.3 240 214.8C266.7 219.3 293.3 206.7 320 196C346.7 185.3 373.3 176.7 400 184.7C426.7 192.7 453.3 217.3 480 233.3C506.7 249.3 533.3 256.7 560 251C586.7 245.3 613.3 226.7 640 218C666.7 209.3 693.3 210.7 720 219C746.7 227.3 773.3 242.7 800 218.7C826.7 194.7 853.3 131.3 880 130.8C906.7 130.3 933.3 192.7 946.7 223.8L960 255L960 0L946.7 0C933.3 0 906.7 0 880 0C853.3 0 826.7 0 800 0C773.3 0 746.7 0 720 0C693.3 0 666.7 0 640 0C613.3 0 586.7 0 560 0C533.3 0 506.7 0 480 0C453.3 0 426.7 0 400 0C373.3 0 346.7 0 320 0C293.3 0 266.7 0 240 0C213.3 0 186.7 0 160 0C133.3 0 106.7 0 80 0C53.3 0 26.7 0 13.3 0L0 0Z" fill="#75ff82"></path><path d="M0 106L13.3 128C26.7 150 53.3 194 80 217.7C106.7 241.3 133.3 244.7 160 217.5C186.7 190.3 213.3 132.7 240 121.2C266.7 109.7 293.3 144.3 320 157C346.7 169.7 373.3 160.3 400 164.2C426.7 168 453.3 185 480 181.3C506.7 177.7 533.3 153.3 560 136.3C586.7 119.3 613.3 109.7 640 102.7C666.7 95.7 693.3 91.3 720 100C746.7 108.7 773.3 130.3 800 157.8C826.7 185.3 853.3 218.7 880 216.8C906.7 215 933.3 178 946.7 159.5L960 141L960 0L946.7 0C933.3 0 906.7 0 880 0C853.3 0 826.7 0 800 0C773.3 0 746.7 0 720 0C693.3 0 666.7 0 640 0C613.3 0 586.7 0 560 0C533.3 0 506.7 0 480 0C453.3 0 426.7 0 400 0C373.3 0 346.7 0 320 0C293.3 0 266.7 0 240 0C213.3 0 186.7 0 160 0C133.3 0 106.7 0 80 0C53.3 0 26.7 0 13.3 0L0 0Z" fill="#00e7b9"></path><path d="M0 75L13.3 92C26.7 109 53.3 143 80 159.2C106.7 175.3 133.3 173.7 160 161.2C186.7 148.7 213.3 125.3 240 108.8C266.7 92.3 293.3 82.7 320 93.8C346.7 105 373.3 137 400 160.5C426.7 184 453.3 199 480 185.3C506.7 171.7 533.3 129.3 560 106C586.7 82.7 613.3 78.3 640 97.8C666.7 117.3 693.3 160.7 720 182.3C746.7 204 773.3 204 800 184C826.7 164 853.3 124 880 107.2C906.7 90.3 933.3 96.7 946.7 99.8L960 103L960 0L946.7 0C933.3 0 906.7 0 880 0C853.3 0 826.7 0 800 0C773.3 0 746.7 0 720 0C693.3 0 666.7 0 640 0C613.3 0 586.7 0 560 0C533.3 0 506.7 0 480 0C453.3 0 426.7 0 400 0C373.3 0 346.7 0 320 0C293.3 0 266.7 0 240 0C213.3 0 186.7 0 160 0C133.3 0 106.7 0 80 0C53.3 0 26.7 0 13.3 0L0 0Z" fill="#00c9db"></path><path d="M0 50L13.3 60.3C26.7 70.7 53.3 91.3 80 109.2C106.7 127 133.3 142 160 142.7C186.7 143.3 213.3 129.7 240 114.5C266.7 99.3 293.3 82.7 320 73C346.7 63.3 373.3 60.7 400 81C426.7 101.3 453.3 144.7 480 163C506.7 181.3 533.3 174.7 560 163.8C586.7 153 613.3 138 640 134.8C666.7 131.7 693.3 140.3 720 144.2C746.7 148 773.3 147 800 153.2C826.7 159.3 853.3 172.7 880 161.7C906.7 150.7 933.3 115.3 946.7 97.7L960 80L960 0L946.7 0C933.3 0 906.7 0 880 0C853.3 0 826.7 0 800 0C773.3 0 746.7 0 720 0C693.3 0 666.7 0 640 0C613.3 0 586.7 0 560 0C533.3 0 506.7 0 480 0C453.3 0 426.7 0 400 0C373.3 0 346.7 0 320 0C293.3 0 266.7 0 240 0C213.3 0 186.7 0 160 0C133.3 0 106.7 0 80 0C53.3 0 26.7 0 13.3 0L0 0Z" fill="#00a6db"></path><path d="M0 97L13.3 93.7C26.7 90.3 53.3 83.7 80 92.7C106.7 101.7 133.3 126.3 160 125.5C186.7 124.7 213.3 98.3 240 79C266.7 59.7 293.3 47.3 320 43C346.7 38.7 373.3 42.3 400 52C426.7 61.7 453.3 77.3 480 80.3C506.7 83.3 533.3 73.7 560 72.5C586.7 71.3 613.3 78.7 640 90.8C666.7 103 693.3 120 720 112.5C746.7 105 773.3 73 800 64.3C826.7 55.7 853.3 70.3 880 77.3C906.7 84.3 933.3 83.7 946.7 83.3L960 83L960 0L946.7 0C933.3 0 906.7 0 880 0C853.3 0 826.7 0 800 0C773.3 0 746.7 0 720 0C693.3 0 666.7 0 640 0C613.3 0 586.7 0 560 0C533.3 0 506.7 0 480 0C453.3 0 426.7 0 400 0C373.3 0 346.7 0 320 0C293.3 0 266.7 0 240 0C213.3 0 186.7 0 160 0C133.3 0 106.7 0 80 0C53.3 0 26.7 0 13.3 0L0 0Z" fill="#2282c0"></path><path d="M0 29L13.3 41.8C26.7 54.7 53.3 80.3 80 96C106.7 111.7 133.3 117.3 160 105.2C186.7 93 213.3 63 240 50.7C266.7 38.3 293.3 43.7 320 42.8C346.7 42 373.3 35 400 30.3C426.7 25.7 453.3 23.3 480 36.2C506.7 49 533.3 77 560 94.5C586.7 112 613.3 119 640 111.3C666.7 103.7 693.3 81.3 720 76.8C746.7 72.3 773.3 85.7 800 86.7C826.7 87.7 853.3 76.3 880 79.5C906.7 82.7 933.3 100.3 946.7 109.2L960 118L960 0L946.7 0C933.3 0 906.7 0 880 0C853.3 0 826.7 0 800 0C773.3 0 746.7 0 720 0C693.3 0 666.7 0 640 0C613.3 0 586.7 0 560 0C533.3 0 506.7 0 480 0C453.3 0 426.7 0 400 0C373.3 0 346.7 0 320 0C293.3 0 266.7 0 240 0C213.3 0 186.7 0 160 0C133.3 0 106.7 0 80 0C53.3 0 26.7 0 13.3 0L0 0Z" fill="#3c5e9d"></path><path d="M0 67L13.3 62.8C26.7 58.7 53.3 50.3 80 54.8C106.7 59.3 133.3 76.7 160 81C186.7 85.3 213.3 76.7 240 66C266.7 55.3 293.3 42.7 320 46.2C346.7 49.7 373.3 69.3 400 78C426.7 86.7 453.3 84.3 480 79.2C506.7 74 533.3 66 560 65.8C586.7 65.7 613.3 73.3 640 71.7C666.7 70 693.3 59 720 59.8C746.7 60.7 773.3 73.3 800 81.2C826.7 89 853.3 92 880 87.3C906.7 82.7 933.3 70.3 946.7 64.2L960 58L960 0L946.7 0C933.3 0 906.7 0 880 0C853.3 0 826.7 0 800 0C773.3 0 746.7 0 720 0C693.3 0 666.7 0 640 0C613.3 0 586.7 0 560 0C533.3 0 506.7 0 480 0C453.3 0 426.7 0 400 0C373.3 0 346.7 0 320 0C293.3 0 266.7 0 240 0C213.3 0 186.7 0 160 0C133.3 0 106.7 0 80 0C53.3 0 26.7 0 13.3 0L0 0Z" fill="#453b76"></path><path d="M0 7L13.3 13C26.7 19 53.3 31 80 32.7C106.7 34.3 133.3 25.7 160 25.5C186.7 25.3 213.3 33.7 240 40.3C266.7 47 293.3 52 320 54.7C346.7 57.3 373.3 57.7 400 53.7C426.7 49.7 453.3 41.3 480 33.2C506.7 25 533.3 17 560 18.3C586.7 19.7 613.3 30.3 640 32.7C666.7 35 693.3 29 720 32C746.7 35 773.3 47 800 48.2C826.7 49.3 853.3 39.7 880 39.7C906.7 39.7 933.3 49.3 946.7 54.2L960 59L960 0L946.7 0C933.3 0 906.7 0 880 0C853.3 0 826.7 0 800 0C773.3 0 746.7 0 720 0C693.3 0 666.7 0 640 0C613.3 0 586.7 0 560 0C533.3 0 506.7 0 480 0C453.3 0 426.7 0 400 0C373.3 0 346.7 0 320 0C293.3 0 266.7 0 240 0C213.3 0 186.7 0 160 0C133.3 0 106.7 0 80 0C53.3 0 26.7 0 13.3 0L0 0Z" fill="#41194c"></path></svg>